<!-- This Source Code Form is subject to the terms of the Mozilla Public
   - License, v. 2.0. If a copy of the MPL was not distributed with this
   - file, You can obtain one at http://mozilla.org/MPL/2.0/. -->
<svg xmlns="http://www.w3.org/2000/svg" viewBox="0 0 16 16">
  <style>
    g:not(:target) {
      display: none;
    }
  </style>
  <g id="pin">
    <path fill-opacity="0.64" d="M14.707 13.293L11.414 10l2.293-2.293a1 1 0 0 0 0-1.414A4.384 4.384 0 0 0 10.586 5h-.172A2.415 2.415 0 0 1 8 2.586V2a1 1 0 0 0-1.707-.707l-5 5A1 1 0 0 0 2 8h.586A2.415 2.415 0 0 1 5 10.414v.169a4.036 4.036 0 0 0 1.337 3.166 1 1 0 0 0 1.37-.042L10 11.414l3.293 3.293a1 1 0 0 0 1.414-1.414zm-7.578-1.837A2.684 2.684 0 0 1 7 10.583v-.169a4.386 4.386 0 0 0-1.292-3.121 4.414 4.414 0 0 0-1.572-1.015l2.143-2.142a4.4 4.4 0 0 0 1.013 1.571A4.384 4.384 0 0 0 10.414 7h.172a2.4 2.4 0 0 1 .848.152z"/>
  </g>
  <g id="unpin">
    <path fill-opacity="0.64" d="M11.414 10l2.293-2.293a1 1 0 0 0 0-1.414 4.418 4.418 0 0 0-.8-.622L11.425 7.15h.008l-4.3 4.3v-.017l-1.48 1.476a3.865 3.865 0 0 0 .692.834 1 1 0 0 0 1.37-.042L10 11.414l3.293 3.293a1 1 0 0 0 1.414-1.414zm3.293-8.707a1 1 0 0 0-1.414 0L9.7 4.882A2.382 2.382 0 0 1 8 2.586V2a1 1 0 0 0-1.707-.707l-5 5A1 1 0 0 0 2 8h.586a2.382 2.382 0 0 1 2.3 1.7l-3.593 3.593a1 1 0 1 0 1.414 1.414l12-12a1 1 0 0 0 0-1.414zm-9 6a4.414 4.414 0 0 0-1.571-1.015l2.143-2.142a4.4 4.4 0 0 0 1.013 1.571 4.191 4.191 0 0 0 .9.684l-1.8 1.8a4.2 4.2 0 0 0-.684-.898z"/>
  </g>
</svg>