<!-- This Source Code Form is subject to the terms of the Mozilla Public
   - License, v. 2.0. If a copy of the MPL was not distributed with this
   - file, You can obtain one at http://mozilla.org/MPL/2.0/. -->
<svg xmlns="http://www.w3.org/2000/svg" viewBox="0 0 16 16" width="32" height="32">
  <style>
    g {
      fill: #000000;
    }
    #selected:target + g {
      fill: #0a84ff;
    }
  </style>
  <g id="selected" />
  <g>
    <path d="m8 0a8 8 0 1 0 8 8 8.009 8.009 0 0 0-8-8zm5.163 4.958h-1.552a7.7 7.7 0 0 0-1.051-2.376 6.03 6.03 0 0 1 2.603 2.376zm0.837 3.042a5.963 5.963 0 0 1-0.335 1.958h-1.821a12.327 12.327 0 0 0 0.156-1.958 12.327 12.327 0 0 0-0.156-1.958h1.821a5.963 5.963 0 0 1 0.335 1.958zm-6 6c-1.075 0-2.037-1.2-2.567-2.958h5.135c-0.531 1.758-1.493 2.958-2.568 2.958zm-2.826-4.042a11.084 11.084 0 0 1 0-3.916h5.651a11.114 11.114 0 0 1 0.175 1.958 11.114 11.114 0 0 1-0.174 1.958zm-3.174-1.958a5.963 5.963 0 0 1 0.335-1.958h1.821a12.361 12.361 0 0 0 0 3.916h-1.821a5.963 5.963 0 0 1-0.335-1.958zm6-6c1.075 0 2.037 1.2 2.567 2.958h-5.134c0.53-1.758 1.492-2.958 2.567-2.958zm-2.56 0.582a7.7 7.7 0 0 0-1.051 2.376h-1.552a6.03 6.03 0 0 1 2.603-2.376zm-2.6 8.46h1.549a7.7 7.7 0 0 0 1.051 2.376 6.03 6.03 0 0 1-2.603-2.376zm7.723 2.376a7.7 7.7 0 0 0 1.051-2.376h1.552a6.03 6.03 0 0 1-2.606 2.376z" stroke-width=".5"/>
  </g>
</svg>
