<?xml version="1.0" encoding="UTF-8"?>
<svg width="16" height="16" version="1.1" viewBox="0 0 16 16" xmlns="http://www.w3.org/2000/svg">
  <path d="m10.18 10.321v-6.8827a1.1209 1.1201 0 0 0-1.1209-1.1201v6.8547a1.1209 1.1201 0 0 1-1.1209 1.1201h-4.6461a1.1209 1.1201 0 0 0 1.1209 1.1201h4.5899a1.1209 1.1201 0 0 0 1.1769-1.0921zm2.2922 2.2905v-6.8771a1.1209 1.1201 0 0 0-1.1209-1.1201v6.8491a1.1209 1.1201 0 0 1-1.1209 1.1201h-4.6405a1.1209 1.1201 0 0 0 1.1209 1.1201h4.5899a1.1209 1.1201 0 0 0 1.1713-1.0921zm1.1209-5.7347v6.8827a1.1209 1.1201 0 0 1-1.1209 1.1201h-4.5899a1.1209 1.1201 0 0 0 1.1209 1.1201h4.5899a1.1209 1.1201 0 0 0 1.1209-1.1201v-6.8547a1.1209 1.1201 0 0 0-1.0929-1.1481zm-5.7389 1.1201v-6.8771a1.1209 1.1201 0 0 0-1.1209-1.1201h-4.6125a1.1209 1.1201 0 0 0-1.1209 1.1201v6.9051a1.1209 1.1201 0 0 0 1.1209 1.1201h4.5899a1.1209 1.1201 0 0 0 1.1713-1.1201z" fill="currentColor" fill-opacity=".7" fill-rule="evenodd"/>
</svg>
