<?xml version="1.0" encoding="UTF-8"?>
<svg width="16" height="16" version="1.1" viewBox="0 0 16 16" xmlns="http://www.w3.org/2000/svg">
  <path d="m15.848 6.0868a1.0506 1.0514 0 0 0-0.68179-0.68227l-3.9622-1.2191-2.3136-3.5735a1.0506 1.0514 0 0 0-1.7715 0l-2.308 3.5735-3.951 1.2191a1.0506 1.0514 0 0 0-0.55884 1.6329l2.5707 3.4393-0.13972 4.3621a1.0506 1.0514 0 0 0 1.4251 1.0178l3.856-1.0066 3.8505 1.0066a1.0506 1.0514 0 0 0 1.4251-1.0178l-0.13412-4.3621 2.5483-3.4393a1.0506 1.0514 0 0 0 0.14529-0.9507zm-7.578 8.26a3.7052 3.7077 0 0 1-2.4925-0.92833l-1.4531 1.4541v-4.2111h4.2081l-1.3021 1.3031a1.8778 1.8791 0 0 0 1.5703 0.79971 1.7268 1.7281 0 0 0 1.8386-1.5771 1.3636 1.3646 0 0 0-0.12294-0.52568h1.0283a2.4589 2.4606 0 0 1 0.14529 0.79412c0 1.5938-1.5536 2.8913-3.4201 2.8913zm3.4201-4.7368h-4.2081l1.3021-1.3031a1.8778 1.8791 0 0 0-1.5703-0.79971 1.7268 1.7281 0 0 0-1.8442 1.5771 1.3636 1.3646 0 0 0 0.12294 0.52568h-1.0227a2.4645 2.4663 0 0 1-0.14531-0.78853c0-1.5994 1.5313-2.8968 3.4201-2.8968a3.7052 3.7077 0 0 1 2.4925 0.92833l1.4531-1.4541z" fill="currentColor" fill-opacity=".7" fill-rule="evenodd"/>
</svg>
