<?xml version="1.0"?>
<!-- This Source Code Form is subject to the terms of the Mozilla Public
   - License, v. 2.0. If a copy of the MPL was not distributed with this
   - file, You can obtain one at http://mozilla.org/MPL/2.0/. -->
<svg xmlns="http://www.w3.org/2000/svg" width="16" height="16" viewBox="0 0 16 16">
  <style>
    g:not(:target) {
      display: none;
    }
  </style>
  <g id="icon">
    <path d="M8,0C3.582,0,0,3.582,0,8c0,4.418,3.582,8,8,8c4.418,0,8-3.582,8-8C16,3.582,12.418,0,8,0z M9,12
      c0,0.553-0.447,1-1,1c-0.552,0-1-0.447-1-1V8c0-0.552,0.448-1,1-1c0.553,0,1,0.448,1,1V12z M8,5.25C7.31,5.25,6.75,4.69,6.75,4
      S7.31,2.75,8,2.75S9.25,3.31,9.25,4S8.69,5.25,8,5.25z" fill="currentColor" fill-opacity="0.7"/>
  </g>
  <g id="selected">
    <path d="M8,0C3.582,0,0,3.582,0,8c0,4.418,3.582,8,8,8c4.418,0,8-3.582,8-8C16,3.582,12.418,0,8,0z M9,12
      c0,0.553-0.447,1-1,1c-0.552,0-1-0.447-1-1V8c0-0.552,0.448-1,1-1c0.553,0,1,0.448,1,1V12z M8,5.25C7.31,5.25,6.75,4.69,6.75,4
      S7.31,2.75,8,2.75S9.25,3.31,9.25,4S8.69,5.25,8,5.25z" fill="#0a84ff"/>
  </g>
  <g id="color">
    <path d="M8,0C3.582,0,0,3.582,0,8c0,4.418,3.582,8,8,8c4.418,0,8-3.582,8-8C16,3.582,12.418,0,8,0z M9,12
      c0,0.553-0.447,1-1,1c-0.552,0-1-0.447-1-1V8c0-0.552,0.448-1,1-1c0.553,0,1,0.448,1,1V12z M8,5.25C7.31,5.25,6.75,4.69,6.75,4
      S7.31,2.75,8,2.75S9.25,3.31,9.25,4S8.69,5.25,8,5.25z" fill="#00a1f2"/>
  </g>
</svg>
