<!-- This Source Code Form is subject to the terms of the Mozilla Public
   - License, v. 2.0. If a copy of the MPL was not distributed with this
   - file, You can obtain one at http://mozilla.org/MPL/2.0/. -->
<svg fill="#000000" fill-opacity="0.7" xmlns="http://www.w3.org/2000/svg"
     width="32" height="32" viewBox="0 0 32 32">
  <style>
    g {
      fill: currentColor;
      fill-opacity: 0.64
    }
    #content:target + g {
      fill: #000;
      fill-opacity: 1;
    }
  </style>
  <g id="content"/>
  <g>
    <path d="m 2,14.5 0,3 2,0.5 a 12,12 0 0 0 10,10 l 0.5,2 3,0 0.5,-2 a 12,12 0 0 0 10,-10 l 2,-0.5 0,-3 -2,-0.5 a 12,12 0 0 0 -10,-10 l -0.5,-2 -3,0 -0.5,2 a 12,12 0 0 0 -10,10 z m 4,1.4 a 10,10 0 1 1 0,0.2 z m 3,0 a 7,7 0 1 1 0,0.2 z"/>
  </g>
</svg>
