<?xml version="1.0" encoding="UTF-8"?>
<svg width="16" height="16" version="1.1" xmlns="http://www.w3.org/2000/svg">
   <style>
    g {
      fill: currentColor;
      fill-opacity: 0.64
    }
    #content:target + g {
      fill: #000;
      fill-opacity: 1;
    }
  </style>
  <g id="content"/>
  <g>
    <path id="plugin" d="m1 14a1 1 0 0 0 1 1h12a1 1 0 0 0 1-1v-8a1 1 0 0 0-1-1h-12a1 1 0 0 0-1 1zm1-10h5v-1a1 1 0 0 0-1-1h-3a1 1 0 0 0-1 1zm7 0h5v-1a1 1 0 0 0-1-1h-3a1 1 0 0 0-1 1z"/>
  </g>
</svg>
