<?xml version="1.0" encoding="UTF-8"?>
<svg width="16" height="16" mlns="http://www.w3.org/2000/svg" version="1.1" viewBox="0 0 16 16" xmlns="http://www.w3.org/2000/svg">
  <style>
    g {
      fill: currentColor;
      fill-opacity: 0.7;
      stroke: currentColor;
      stroke-opacity: 0.7;
    }
    
    #selected:target + g {
      fill: #0a84ff;
      fill-opacity: 1;
      stroke: #0a84ff;
      stroke-opacity: 1;
    }
  </style>
  <g id="selected" />
  <g>
    <path d="m13 1a3 3 0 0 1 3 3v8a3 3 0 0 1-3 3h-10a3 3 0 0 1-3-3v-8a3 3 0 0 1 3-3h10zm0 2h-10a1 1 0 0 0-1 1v1h12v-1a1 1 0 0 0-1-1zm1 3h-12v6a1 1 0 0 0 1 1h10a1 1 0 0 0 1-1z" stroke="none"/>
    <path d="m4.5 7.5 2 2-2 2" fill="none" stroke-linecap="round" stroke-linejoin="round"/>
  </g>
</svg>
