<?xml version="1.0"?>
<!-- This Source Code Form is subject to the terms of the Mozilla Public
   - License, v. 2.0. If a copy of the MPL was not distributed with this
   - file, You can obtain one at http://mozilla.org/MPL/2.0/. -->
<svg xmlns="http://www.w3.org/2000/svg" width="16" height="16" viewBox="0 0 16 16">
  <style>
    g:not(:target) {
      display: none;
    }
  </style>
  <g id="icon">
    <path d="M8,15c-3.866,0-7-3.135-7-7c0-3.866,3.134-7,7-7c3.865,0,7,3.134,7,7C14.995,11.864,11.864,14.995,8,15z
       M8,3.125c-1.488-0.1-2.775,1.025-2.875,2.513C5.117,5.758,5.117,5.879,5.125,6c0,0.483,0.392,0.875,0.875,0.875
      S6.875,6.483,6.875,6c0-1,0.6-1.125,1.125-1.125c0.502-0.039,0.967,0.268,1.13,0.744c0.093,0.422-0.131,0.85-0.53,1.016
      C7.714,7.096,7.148,8.002,7.125,9v0.337c0,0.483,0.392,0.875,0.875,0.875S8.875,9.82,8.875,9.337v-0.37
      C8.92,8.604,9.15,8.292,9.484,8.143c1.082-0.564,1.635-1.799,1.336-2.982C10.455,3.918,9.294,3.081,8,3.125z M8,10.75
      c-0.69,0-1.25,0.56-1.25,1.25S7.31,13.25,8,13.25S9.25,12.69,9.25,12S8.69,10.75,8,10.75z" fill="currentColor" />
  </g>
  <g id="selected">
    <path d="M8,15c-3.866,0-7-3.135-7-7c0-3.866,3.134-7,7-7c3.865,0,7,3.134,7,7C14.995,11.864,11.864,14.995,8,15z
       M8,3.125c-1.488-0.1-2.775,1.025-2.875,2.513C5.117,5.758,5.117,5.879,5.125,6c0,0.483,0.392,0.875,0.875,0.875
      S6.875,6.483,6.875,6c0-1,0.6-1.125,1.125-1.125c0.502-0.039,0.967,0.268,1.13,0.744c0.093,0.422-0.131,0.85-0.53,1.016
      C7.714,7.096,7.148,8.002,7.125,9v0.337c0,0.483,0.392,0.875,0.875,0.875S8.875,9.82,8.875,9.337v-0.37
      C8.92,8.604,9.15,8.292,9.484,8.143c1.082-0.564,1.635-1.799,1.336-2.982C10.455,3.918,9.294,3.081,8,3.125z M8,10.75
      c-0.69,0-1.25,0.56-1.25,1.25S7.31,13.25,8,13.25S9.25,12.69,9.25,12S8.69,10.75,8,10.75z" fill="#0a84ff" />
  </g>
  <g id="color">
    <path d="M8,15c-3.866,0-7-3.135-7-7c0-3.866,3.134-7,7-7c3.865,0,7,3.134,7,7C14.995,11.864,11.864,14.995,8,15z
       M8,3.125c-1.488-0.1-2.775,1.025-2.875,2.513C5.117,5.758,5.117,5.879,5.125,6c0,0.483,0.392,0.875,0.875,0.875
      S6.875,6.483,6.875,6c0-1,0.6-1.125,1.125-1.125c0.502-0.039,0.967,0.268,1.13,0.744c0.093,0.422-0.131,0.85-0.53,1.016
      C7.714,7.096,7.148,8.002,7.125,9v0.337c0,0.483,0.392,0.875,0.875,0.875S8.875,9.82,8.875,9.337v-0.37
      C8.92,8.604,9.15,8.292,9.484,8.143c1.082-0.564,1.635-1.799,1.336-2.982C10.455,3.918,9.294,3.081,8,3.125z M8,10.75
      c-0.69,0-1.25,0.56-1.25,1.25S7.31,13.25,8,13.25S9.25,12.69,9.25,12S8.69,10.75,8,10.75z" fill="#00a1f2" />
  </g>
</svg>
