<!-- This Source Code Form is subject to the terms of the Mozilla Public
   - License, v. 2.0. If a copy of the MPL was not distributed with this
   - file, You can obtain one at http://mozilla.org/MPL/2.0/. -->
<svg xmlns="http://www.w3.org/2000/svg" viewBox="0 0 16 16">
	<path fill="currentColor" d="M15.707,14.293l-4.822-4.822c1.927-2.708,1.294-6.467-1.415-8.394C6.762-0.851,3.006-0.218,1.077,2.491
		C-0.851,5.2-0.217,8.957,2.492,10.885c2.088,1.486,4.891,1.486,6.979,0l4.822,4.822c0.397,0.384,1.03,0.373,1.414-0.023
		C16.081,15.295,16.081,14.682,15.707,14.293z M6,10c-2.209,0-4-1.791-4-4s1.791-4,4-4s4,1.791,4,4S8.209,10,6,10z"/>
</svg>
