<!-- This Source Code Form is subject to the terms of the Mozilla Public
   - License, v. 2.0. If a copy of the MPL was not distributed with this
   - file, You can obtain one at http://mozilla.org/MPL/2.0/. -->
<svg xmlns="http://www.w3.org/2000/svg" width="16" height="16" viewBox="0 0 16 16">
  <path fill="currentColor" d="m15.707 14.293-4.822-4.822c1.927-2.708 1.294-6.467-1.415-8.394-2.708-1.928-6.464-1.295-8.393 1.414-1.928 2.709-1.294 6.466 1.415 8.394 2.088 1.486 4.891 1.486 6.979 0l4.822 4.822c0.397 0.384 1.03 0.373 1.414-0.023 0.374-0.389 0.374-1.002 0-1.391zm-9.707-4.293c-2.209 0-4-1.791-4-4s1.791-4 4-4 4 1.791 4 4-1.791 4-4 4z"/>
</svg>
