<!-- This Source Code Form is subject to the terms of the Mozilla Public
   - License, v. 2.0. If a copy of the MPL was not distributed with this
   - file, You can obtain one at http://mozilla.org/MPL/2.0/. -->
<svg xmlns="http://www.w3.org/2000/svg" width="128" height="16" viewBox="0 0 128 16">
  <style>
    g {
      fill: currentColor;
      fill-opacity: 0.64;
    }
  </style>
  <g>
    <path d="m11.5 10c-0.127 3e-3 -0.254 0.016-0.379 0.038l-7.144-8.824c-1.073 0.869-1.239 2.442-0.371 
    3.515l2.789 3.444-1.51 1.866c-0.127-0.023-0.256-0.036-0.385-0.039-1.393-0.012-2.532 1.107-2.544 2.5s1.107 2.531 2.5 2.544 2.532-1.107 2.544-2.5c3e-3 
    -0.319-0.055-0.637-0.171-0.935l1.171-1.45 1.172 1.44c-0.497 1.289 0.145 2.736 1.433 3.232 1.288 0.498 2.735-0.145 3.232-1.432 
    0.497-1.289-0.145-2.736-1.433-3.232-0.288-0.11-0.595-0.167-0.904-0.167zm-7 3.75c-0.69 0-1.25-0.56-1.25-1.25s0.56-1.25 1.25-1.25 1.25 0.56 1.25 
    1.25c0 0.689-0.56 1.25-1.25 1.25zm7 0c-0.69 0-1.25-0.56-1.25-1.25s0.56-1.25 1.25-1.25 1.25 0.56 1.25 1.25c0 0.689-0.56 1.25-1.25 1.25zm0.9-9.021c0.868-1.073 
    0.702-2.646-0.371-3.515l-3.529 4.355 1.608 1.986z"/>
    <path d="m29.707 8.293-3-3c-0.187-0.188-0.442-0.293-0.707-0.293h-1v-1c0-0.265-0.105-0.52-0.293-0.707l-3-3c-0.187-0.188-0.442-0.293-0.707-0.293h-3c-1.104 
    0-2 0.896-2 2v7c0 1.104 0.896 2 2 2h3v3c0 1.104 0.896 2 2 2h5c1.104 0 2-0.896 2-2v-5c0-0.266-0.105-0.52-0.293-0.707zm-2.121 0.707h-1.586v-1.586zm-5-5h-1.586v-1.586zm-1.586 3v2h-3v-7h2v2.5c0 
    0.276 0.224 0.5 0.5 0.5h2.5c-1.104 0-2 0.896-2 2zm2 7v-7h2v2.5c0 0.276 0.224 0.5 0.5 0.5h2.5v4z"/>
    <path d="m121.08 8.231 3.47-3.47c0.283-0.303 0.266-0.777-0.037-1.06-0.288-0.268-0.734-0.268-1.022 
    0l-3.47 3.47-3.471-3.47c-0.282-0.303-0.757-0.32-1.06-0.037-0.304 0.282-0.32 0.757-0.038 1.06 0.012 0.013 0.025 0.025 0.038 0.038l3.47 3.47-3.47 3.47c-0.304 0.283-0.32 0.757-0.038 
    1.061 0.283 0.303 0.758 0.319 1.061 0.037 0.013-0.012 0.025-0.024 0.037-0.037l3.471-3.471 3.47 3.471c0.303 0.281 0.777 0.266 1.06-0.038 0.269-0.288 0.269-0.734 0-1.022z"/>
    <path d="m43 2h-1.05c-0.274-1.353-1.595-2.227-2.948-1.953-0.983 0.2-1.752 0.969-1.952 1.953h-1.05c-1.104 0-2 0.896-2 2v10c0 1.104 0.896 2 2 2h7c1.104 0 2-0.896 
    2-2v-10c0-1.104-0.896-2-2-2zm0 7c0 0.553-0.447 1-1 1h-5c-0.552 0-1-0.447-1-1v-4h7zm0-5h-7v-1h1.05c0.476 0 0.885-0.334 0.98-0.8 0.167-0.812 0.959-1.335 1.771-1.169 
    0.588 0.121 1.048 0.581 1.168 1.169 0.096 0.465 0.505 0.8 0.98 0.8h1.051zm-3.5-2c-0.276 0-0.5 0.224-0.5 0.5s0.224 0.5 0.5 0.5 0.5-0.224 0.5-0.5-0.224-0.5-0.5-0.5zm-2 
    5h4c0.276 0 0.5-0.224 0.5-0.5s-0.224-0.5-0.5-0.5h-4c-0.276 0-0.5 0.224-0.5 0.5s0.224 0.5 0.5 0.5zm0 2h2c0.276 0 0.5-0.224 0.5-0.5s-0.224-0.5-0.5-0.5h-2c-0.276 0-0.5 
    0.224-0.5 0.5s0.224 0.5 0.5 0.5z"/>
    <path d="m62 5h-1v-4c0-0.552-0.447-1-1-1h-8c-0.553 0-1 0.448-1 1v4h-1c-1.104 0-2 0.896-2 2v5h3v3c0 0.553 0.447 1 1 1h8c0.553 
    0 1-0.447 1-1v-3h3v-5c0-1.104-0.896-2-2-2zm-11.5 3c-0.276 0-0.5-0.224-0.5-0.5s0.224-0.5 0.5-0.5 0.5 0.224 0.5 0.5-0.224 0.5-0.5 0.5zm9.5 7h-8v-5h8zm0-10h-8v-4h8zm-6.5 
    7h4c0.276 0 0.5-0.224 0.5-0.5s-0.224-0.5-0.5-0.5h-4c-0.276 0-0.5 0.224-0.5 0.5s0.224 0.5 0.5 0.5zm0 2h5c0.276 0 0.5-0.224 0.5-0.5s-0.224-0.5-0.5-0.5h-5c-0.276 0-0.5 
    0.224-0.5 0.5s0.224 0.5 0.5 0.5z"/>
    <path d="m79.748 6.1383a1.1 1.1 0 0 0-0.845-0.733l-4.089-0.731-1.926-3.865a1.1 1.1 0 0 0-1.969 0l-1.927 3.865-4.081 0.729a1.1 
    1.1 0 0 0-0.615 1.834l2.927 3.147-0.609 4.36a1.1 1.1 0 0 0 1.6 1.127l3.689-1.924 3.69 1.927a1.1 1.1 0 0 0 1.6-1.127l-0.61-4.363 2.926-3.146a1.1 1.1 0 0 0 0.239-1.1z"/>
    <g transform="translate(80)">
      <path d="m14.5 8c-0.971 0-1 1-1.75 1a0.765 0.765 0 0 1-0.75-0.75v-3.25a1 1 0 0 0-1-1h-3.25a0.765 0.765 0 0 1-0.75-0.75c0-0.75 1-0.779 1-1.75 0-0.865-0.9-1.5-2-1.5s-2 
      0.635-2 1.5c0 0.971 1 1 1 1.75a0.765 0.765 0 0 1-0.75 0.75h-3.25a1 1 0 0 0-1 1v2.25a0.765 0.765 0 0 0 0.75 0.75c0.75 0 0.779-1 1.75-1 0.865 0 1.5 0.9 1.5 2s-0.635 
      2-1.5 2c-0.971 0-1-1-1.75-1a0.765 0.765 0 0 0-0.75 0.75v4.25a1 1 0 0 0 1 1h3.25a0.765 0.765 0 0 0 0.75-0.75c0-0.75-1-0.779-1-1.75 0-0.865 0.9-1.5 2-1.5s2 0.635 2 
      1.5c0 0.971-1 1-1 1.75a0.765 0.765 0 0 0 0.75 0.75h3.25a1 1 0 0 0 1-1v-3.25a0.765 0.765 0 0 1 0.75-0.75c0.75 0 0.779 1 1.75 1 0.865 0 1.5-0.9 1.5-2s-0.635-2-1.5-2z"/>
    </g>
    <path d="m104 0a8 8 0 1 0 8 8 8.009 8.009 0 0 0-8-8zm0 14a6 6 0 1 1 6-6 6.007 6.007 0 0 1-6 6zm3.5-6h-3.5v-3.5a0.5 0.5 0 0 0-1 0v4a0.5 0.5 0 0 0 0.5 0.5h4a0.5 0.5 0 0 0 0-1z"/>
  </g>
</svg>
