<?xml version="1.0" encoding="utf-8"?>
<svg xmlns="http://www.w3.org/2000/svg" 
     xmlns:xlink="http://www.w3.org/1999/xlink"
     x="0" y="0" width="341" height="18" viewBox="0 0 341 18">
   <style>
    g {
      fill: currentColor;
      fill-opacity: 0.64;
    }
    #brighttext:target + g {
      fill: #fff;
      fill-opacity: 1;
    }
  </style>
  <g id="brighttext"/>
  <g>
    <path d="M16.98,8.072H5.395l4.292-4.292c0.383-0.398,0.372-1.031-0.026-1.414c-0.387-0.373-1-0.373-1.387,0
      l-6,6c-0.391,0.391-0.391,1.023,0,1.414l6,6c0.398,0.383,1.031,0.371,1.414-0.027c0.373-0.387,0.373-1,0-1.387l-4.292-4.293H16.98
      c0.552,0,1-0.448,1-1S17.533,8.072,16.98,8.072L16.98,8.072z"/>
    <path d="M33.686,8.336l-6-6c-0.397-0.383-1.03-0.372-1.414,0.025c-0.374,0.388-0.374,1.002,0,1.389
      l4.293,4.293H18.979c-0.552,0-1,0.448-1,1s0.448,1,1,1h11.586l-4.293,4.293c-0.397,0.385-0.408,1.018-0.024,1.414
      c0.383,0.398,1.017,0.408,1.414,0.025c0.008-0.008,0.017-0.017,0.024-0.025l6-6C34.076,9.36,34.076,8.727,33.686,8.336z"/>
    <path d="M46.422,9.017l5.293-5.292c0.384-0.397,0.373-1.03-0.025-1.414c-0.387-0.374-1.001-0.374-1.389,0
      l-5.292,5.293L39.716,2.31c-0.397-0.384-1.03-0.373-1.414,0.025c-0.374,0.388-0.374,1.001,0,1.389l5.293,5.292l-5.293,5.293
      c-0.397,0.384-0.408,1.017-0.025,1.414c0.384,0.397,1.017,0.408,1.414,0.024c0.008-0.008,0.017-0.016,0.025-0.024l5.293-5.293
      l5.292,5.293c0.397,0.384,1.03,0.372,1.414-0.024c0.374-0.389,0.374-1.002,0-1.39L46.422,9.017z"/>
    <path d="M70.007,2.025c-0.552,0-1,0.447-1,1l0,0v2.418c-1.981-3.317-6.276-4.4-9.592-2.419
      c-3.317,1.981-4.4,6.276-2.419,9.592c1.264,2.116,3.547,3.41,6.011,3.408c1.857,0.005,3.64-0.732,4.95-2.05
      c0.384-0.397,0.373-1.03-0.024-1.414c-0.388-0.374-1.002-0.374-1.389,0c-1.942,1.979-5.12,2.008-7.098,0.065
      c-1.978-1.941-2.007-5.119-0.065-7.097s5.12-2.007,7.098-0.065c0.456,0.447,0.821,0.977,1.078,1.562h-2.549c-0.552,0-1,0.448-1,1
      s0.448,1,1,1h5c0.552,0,1-0.448,1-1l0,0v-5C71.007,2.473,70.559,2.025,70.007,2.025L70.007,2.025L70.007,2.025z"/>
    <path d="M88.677,8.336l-7-7c-0.39-0.39-1.023-0.39-1.414,0l-7,7c-0.383,0.397-0.372,1.03,0.025,1.414
      c0.388,0.375,1.002,0.375,1.389,0l0.293-0.292v5.585c0,1.105,0.896,2,2,2h8c1.104,0,2-0.895,2-2l0,0V9.458l0.293,0.292
      c0.397,0.385,1.03,0.373,1.414-0.024C89.051,9.338,89.051,8.724,88.677,8.336L88.677,8.336z M80.971,12.543
      c0-0.275,0.224-0.5,0.5-0.5c0.276,0,0.5,0.225,0.5,0.5c0,0.277-0.224,0.5-0.5,0.5C81.194,13.043,80.971,12.82,80.971,12.543
      L80.971,12.543z M84.971,14.043c0,0.553-0.448,1-1,1l0,0h-1v-5c0-0.552-0.448-1-1-1h0h-2c-0.552,0-1,0.448-1,1l0,0v5h-1
      c-0.552,0-1-0.447-1-1l0,0V7.458l4-4l4,4L84.971,14.043z"/>
    <path d="M98.277,15.744c0.391,0.391,1.023,0.391,1.414,0l5-5
      c0.378-0.402,0.358-1.035-0.044-1.413c-0.385-0.362-0.985-0.361-1.37,0l-3.293,3.293V4.039c0-0.552-0.448-1-1-1
      c-0.553,0-1,0.448-1,1v8.586l-3.293-3.293c-0.402-0.378-1.035-0.359-1.414,0.043c-0.362,0.385-0.362,0.984,0,1.369L98.277,15.744z"
      />
    <path d="M116.986,1.042c-4.418,0-8,3.582-8,8c0,4.419,3.582,8,8,8s8-3.581,8-8l0,0
      C124.981,4.626,121.402,1.047,116.986,1.042z M116.986,15.042c-3.314,0-6-2.687-6-6s2.686-6,6-6c3.313,0,6,2.687,6,6l0,0
      C122.982,12.354,120.298,15.038,116.986,15.042z M120.486,9.042h-3.5v-3.5c-0.003-0.276-0.229-0.498-0.505-0.495
      c-0.272,0.003-0.493,0.223-0.495,0.495v4c0,0.276,0.224,0.5,0.5,0.5l0,0h4c0.276,0,0.5-0.224,0.5-0.5
      S120.762,9.042,120.486,9.042L120.486,9.042z"/>
    <path d="M142.762,7.165c-0.131-0.387-0.466-0.669-0.87-0.733l-4.082-0.731l-1.928-3.865
      c-0.273-0.543-0.934-0.762-1.477-0.488c-0.211,0.106-0.382,0.277-0.488,0.488l-1.928,3.865l-4.082,0.729
      c-0.598,0.109-0.994,0.683-0.884,1.28c0.038,0.208,0.135,0.4,0.279,0.554l2.91,3.146l-0.604,4.36
      c-0.093,0.601,0.319,1.163,0.919,1.255c0.243,0.037,0.491-0.008,0.706-0.127l3.666-1.925l3.704,1.927
      c0.542,0.275,1.204,0.059,1.479-0.484c0.101-0.197,0.138-0.422,0.109-0.643l-0.604-4.363l2.91-3.146
      c0.325-0.265,0.472-0.691,0.378-1.1H142.762z"/>
    <path d="M159.014,6.031h-1v-4c0-0.552-0.447-1-1-1l0,0h-8c-0.552,0-1,0.448-1,1l0,0v4h-1
      c-1.104,0-2,0.895-2,2l0,0v5h3v3c0,0.552,0.448,1,1,1l0,0h8c0.552,0,1-0.447,1-1l0,0v-3h3v-5
      C161.014,6.927,160.118,6.031,159.014,6.031L159.014,6.031z M147.514,9.031c-0.276,0-0.5-0.224-0.5-0.5
      c0-0.276,0.224-0.5,0.5-0.5c0.276,0,0.5,0.224,0.5,0.5C148.014,8.807,147.79,9.031,147.514,9.031L147.514,9.031z M157.014,16.031
      h-8v-5h8V16.031z M157.014,6.031h-8v-4h8V6.031z M150.514,13.031h4c0.276,0,0.5-0.224,0.5-0.5c0-0.275-0.224-0.5-0.5-0.5l0,0h-4
      c-0.276,0-0.5,0.225-0.5,0.5C150.014,12.808,150.238,13.031,150.514,13.031z M150.514,15.031h5
      c0.276-0.002,0.498-0.229,0.495-0.505c-0.002-0.272-0.223-0.492-0.495-0.495h-5c-0.276-0.002-0.502,0.219-0.505,0.495
      c-0.002,0.276,0.219,0.503,0.495,0.505C150.507,15.031,150.511,15.031,150.514,15.031z"/>
    <path d="M173.98,11.058v-2c0-0.552,0.447-1,1-1l0,0h1c0.553,0,1,0.448,1,1l0,0v-4c0-1.104-0.895-2-2-2l0,0h-8
      c-1.104,0-2,0.896-2,2v6h-1c-0.552,0-1,0.448-1,1s0.448,1,1,1h7v-1c0-0.552,0.447-1,1-1l0,0H173.98z M178.48,12.058h-2.5v-2.5
      c0-0.276-0.224-0.5-0.5-0.5c-0.275,0-0.5,0.224-0.5,0.5v2.5h-2.5c-0.275,0-0.5,0.224-0.5,0.5s0.225,0.5,0.5,0.5h2.5v2.5
      c0,0.276,0.225,0.5,0.5,0.5c0.276,0,0.5-0.224,0.5-0.5v-2.5h2.5c0.276,0,0.5-0.224,0.5-0.5S178.757,12.058,178.48,12.058z"/>
    <path d="M196.506,13.023h-2.5v-2.5c0-0.276-0.223-0.5-0.5-0.5c-0.275,0-0.5,0.224-0.5,0.5v2.5h-2.5
      c-0.275,0-0.5,0.224-0.5,0.5c0,0.275,0.225,0.5,0.5,0.5h2.5v2.5c0,0.275,0.225,0.5,0.5,0.5c0.277,0,0.5-0.225,0.5-0.5l0,0v-2.5
      h2.5c0.277,0,0.5-0.225,0.5-0.5C197.006,13.247,196.783,13.023,196.506,13.023z"/>
    <path d="M196.998,5.048c0-1.657-1.344-3-3-3h-10c-1.656,0-3,1.343-3,3v8c0,1.657,1.344,3,3,3h4.03v-0.007
      c0.548-0.018,0.979-0.477,0.962-1.025c-0.016-0.524-0.438-0.945-0.962-0.963v-0.007h-4.03c-0.553,0-1-0.448-1-1l0,0v-6h12v1.952
      h0.012c0,0.019-0.012,0.03-0.012,0.048c0,0.552,0.449,0.999,1.002,0.999c0.551-0.002,0.997-0.448,0.998-0.999
      c0-0.015-0.008-0.03-0.012-0.048h0.012V5.048z M182.998,6.048v-1c0-0.552,0.447-1,1-1l0,0h10c0.553,0,1,0.448,1,1l0,0v1H182.998z
      "/>
    <path d="M210.528,10.982c-0.127,0.003-0.254,0.016-0.379,0.038l-7.144-8.824
      c-1.073,0.868-1.239,2.442-0.371,3.515l2.789,3.444l-1.511,1.866c-0.127-0.023-0.256-0.036-0.385-0.039
      c-1.394-0.012-2.532,1.107-2.544,2.5s1.107,2.531,2.5,2.544s2.531-1.107,2.544-2.5c0.003-0.319-0.056-0.638-0.171-0.935
      l1.171-1.45l1.172,1.44c-0.497,1.289,0.145,2.736,1.433,3.232c1.288,0.498,2.735-0.145,3.232-1.432
      c0.496-1.289-0.145-2.736-1.433-3.232C211.145,11.039,210.838,10.982,210.528,10.982L210.528,10.982z M203.528,14.732
      c-0.69,0-1.25-0.561-1.25-1.25c0-0.69,0.56-1.25,1.25-1.25s1.25,0.559,1.25,1.25l0,0
      C204.777,14.172,204.219,14.731,203.528,14.732z M210.528,14.732c-0.69,0-1.25-0.561-1.25-1.25c0-0.691,0.56-1.25,1.25-1.25
      s1.25,0.559,1.25,1.25l0,0C211.777,14.172,211.219,14.731,210.528,14.732z M211.428,5.711c0.868-1.073,0.702-2.646-0.371-3.515
      l-3.528,4.355l1.608,1.986L211.428,5.711z"/>
    <path d="M231.693,9.319l-3-3c-0.188-0.188-0.441-0.293-0.707-0.293h-1v-1c0-0.265-0.105-0.52-0.293-0.707
      l-3-3c-0.188-0.188-0.441-0.293-0.707-0.293h-3c-1.104,0-2,0.896-2,2l0,0v7c0,1.105,0.896,2,2,2l0,0h3v3.001c0,1.104,0.896,2,2,2
      l0,0h5c1.105,0,2-0.896,2-2l0,0v-5C231.986,9.762,231.881,9.507,231.693,9.319L231.693,9.319z M229.572,10.026h-1.586V8.44
      L229.572,10.026z M224.572,5.026h-1.586V3.44L224.572,5.026z M222.986,8.026v2h-3v-7h2v2.5c0,0.276,0.225,0.5,0.5,0.5l0,0h2.5
      C223.883,6.026,222.986,6.921,222.986,8.026L222.986,8.026L222.986,8.026z M224.986,15.026v-7h2v2.5c0,0.276,0.225,0.5,0.5,0.5
      l0,0h2.5v4H224.986z"/>
    <path d="M247,3.045h-1.049c-0.275-1.353-1.596-2.227-2.949-1.952c-0.982,0.2-1.751,0.968-1.951,1.952h-1.05
      c-1.104,0-2,0.896-2,2v10c0,1.104,0.896,2,2,2h7c1.104,0,2-0.896,2-2v-10C249.001,3.94,248.105,3.045,247,3.045L247,3.045z
       M247,10.045c0,0.553-0.447,1-1,1l0,0h-5c-0.552,0-1-0.447-1-1l0,0v-4h7V10.045z M247,5.045h-7v-1h1.051
      c0.475,0,0.885-0.334,0.98-0.8c0.166-0.812,0.959-1.334,1.77-1.168c0.589,0.121,1.049,0.581,1.169,1.168
      c0.095,0.466,0.505,0.8,0.979,0.8H247V5.045z M243.5,3.045c-0.275,0-0.5,0.224-0.5,0.5c0,0.276,0.225,0.5,0.5,0.5
      c0.277,0,0.5-0.224,0.5-0.5C244,3.269,243.777,3.045,243.5,3.045L243.5,3.045z M241.5,8.045h4c0.277,0,0.5-0.224,0.5-0.5
      c0-0.276-0.223-0.5-0.5-0.5l0,0h-4c-0.275,0-0.5,0.224-0.5,0.5C241,7.821,241.225,8.045,241.5,8.045z M241.5,10.045h2
      c0.277,0,0.5-0.224,0.5-0.5c0-0.276-0.223-0.5-0.5-0.5l0,0h-2c-0.275,0-0.5,0.224-0.5,0.5C241,9.821,241.225,10.045,241.5,10.045
      z"/>
    <path d="M260.721,9.319c-0.391-0.391-1.023-0.391-1.414,0l-3.293,3.293v-2.586c0-0.552-0.448-1-1-1
      c-0.553,0-1,0.448-1,1v5c0,0.552,0.447,1,1,1l0,0h5c0.552,0,1-0.448,1-1c0-0.553-0.448-1-1-1l0,0h-2.586l3.293-3.294
      C261.11,10.343,261.11,9.709,260.721,9.319z M267.014,2.026h-5c-0.553,0-1,0.448-1,1s0.447,1,1,1h2.586l-3.293,3.293
      c-0.398,0.384-0.409,1.017-0.025,1.414c0.384,0.397,1.017,0.408,1.414,0.024c0.008-0.008,0.017-0.016,0.025-0.024l3.293-3.293
      v2.586c0,0.552,0.447,1,1,1c0.552,0,1-0.448,1-1v-5C268.014,2.474,267.565,2.026,267.014,2.026L267.014,2.026z"/>
    <path d="M272.982,8.034h12c0.553,0,1,0.448,1,1l0,0c0,0.552-0.447,1-1,1h-12c-0.552,0-1-0.448-1-1l0,0
      C271.982,8.482,272.431,8.034,272.982,8.034z"/>
    <path d="M303.013,8.034h-5v-5c0-0.552-0.448-1-1-1s-1,0.448-1,1v5h-5c-0.552,0-1,0.448-1,1
      c0,0.552,0.448,1,1,1h5v5c0,0.552,0.448,1,1,1s1-0.448,1-1v-5h5c0.553,0,1-0.448,1-1C304.013,8.482,303.565,8.034,303.013,8.034z"
      />
    <path d="M321.003,2.025c-0.552,0-1,0.447-1,1l0,0v1.146c-2.651-2.773-7.05-2.872-9.823-0.22
      c-0.959,0.917-1.636,2.091-1.949,3.381c-0.146,0.533,0.169,1.082,0.702,1.228c0.532,0.145,1.082-0.169,1.228-0.702
      c0.004-0.014,0.007-0.027,0.011-0.042c0.548-2.224,2.542-3.789,4.832-3.791c1.565-0.002,3.038,0.74,3.968,2h-1.968
      c-0.552,0-1,0.448-1,1s0.448,1,1,1h4c0.553,0,1-0.448,1-1l0,0v-4C322.003,2.473,321.556,2.025,321.003,2.025L321.003,2.025
      L321.003,2.025z M321.049,9.506c-0.535-0.134-1.078,0.191-1.212,0.728l-0.001,0.001c-0.548,2.224-2.542,3.788-4.832,3.791
      c-1.565,0.002-3.039-0.74-3.968-2h1.968c0.552,0,1-0.448,1-1c0-0.553-0.448-1-1-1l0,0h-4c-0.553,0-1,0.447-1,1l0,0v3.999
      c0,0.552,0.447,1,1,1c0.552,0,1-0.448,1-1v-1.146c2.651,2.773,7.05,2.871,9.823,0.219c0.959-0.917,1.636-2.09,1.949-3.38
      C321.91,10.182,321.585,9.64,321.049,9.506L321.049,9.506z"/>
    <path d="M328.486,11.058c-1.381,0-2.5,1.119-2.5,2.5s1.119,2.5,2.5,2.5s2.5-1.119,2.5-2.5
      S329.867,11.058,328.486,11.058L328.486,11.058z M326.986,2.058c-0.552,0-1,0.448-1,1s0.448,1,1,1
      c6.011-0.065,10.936,4.755,11,10.765c0.001,0.078,0.001,0.156,0,0.234c0,0.553,0.448,1,1,1c0.553,0,1-0.447,1-1l0,0
      c0.077-7.103-5.619-12.923-12.723-13C327.172,2.057,327.079,2.057,326.986,2.058L326.986,2.058z M326.986,6.058
      c-0.552,0-1,0.448-1,1s0.448,1,1,1c3.825-0.041,6.959,3.026,7,6.851c0.001,0.051,0.001,0.1,0,0.149c0,0.553,0.448,1,1,1
      c0.553,0,1-0.447,1-1l0,0c0.056-4.915-3.884-8.944-8.799-9C327.121,6.057,327.054,6.057,326.986,6.058L326.986,6.058z"/>
  </g>
</svg>
