<!-- This Source Code Form is subject to the terms of the Mozilla Public
   - License, v. 2.0. If a copy of the MPL was not distributed with this
   - file, You can obtain one at http://mozilla.org/MPL/2.0/. -->
<svg width="16" height="16" version="1.1" xmlns="http://www.w3.org/2000/svg">
  <style>
    g {
      fill: currentColor;
      fill-opacity: 0.64;
    }
    
    #brighttext:target + g {
      fill: #ffffff;
      fill-opacity: 1;
    }
  </style>
  <g id="brighttext" />
  <g>
    <path d="m0 14.523c0-2.5101 0.62333-3.3967 2.7566-4.4301 3.04-1.1834 3.6933-1.1834 2.6466-3.3967-0.99332-1.0334-0.69999-4.4334 0.11-5.4668 0.39666-0.59001 1.25-1.03 2.1466-1.18 1.2433-0.14667 1.6666 0 2.52 0.88668 0.85666 0.73668 1.0267 1.33 1.0267 2.9534 0 1.0334-0.11 2.0667-0.29666 2.0667-0.18 0.15-0.44 0.74001-0.53666 1.1834-0.69666 1.6234 0.58666 2.2134 2.77 2.9534 1.8366 0.59001 2.45 1.33 2.72 3.8401 0 0 0.13667 2.0667 0.13667 2.0667h-16v-1.4767"/>
  </g>
</svg>
