<!-- This Source Code Form is subject to the terms of the Mozilla Public
   - License, v. 2.0. If a copy of the MPL was not distributed with this
   - file, You can obtain one at http://mozilla.org/MPL/2.0/. -->
<svg xmlns="http://www.w3.org/2000/svg" width="16" height="16" viewBox="0 0 16 16">
  <style>
    g:not(:target) {
      display: none;
    }
  </style>
  <g id="brighttext">
    <path fill="#fff" fill-opacity="1" d="M6.854 10.854l2-2A.5.5 0 0 0 9 8.5v-4a.5.5 0 0 0-1 0v3.793l-1.854 1.853a.5.5 0 1 0 .707.707zM8 0a8.011 8.011 0 0 0-7 4.184V1.5a.5.5 0 0 0-1 0v5a.5.5 0 0 0 .5.5h5a.5.5 0 0 0 0-1H2.344a.938.938 0 0 0 .056-.085 6 6 0 1 1 0 4.184 1 1 0 0 0-1.873.7A7.991 7.991 0 1 0 8 0z"/>
  </g>
  <g id="icon">
    <path fill="currentColor" fill-opacity="0.64" d="M6.854 10.854l2-2A.5.5 0 0 0 9 8.5v-4a.5.5 0 0 0-1 0v3.793l-1.854 1.853a.5.5 0 1 0 .707.707zM8 0a8.011 8.011 0 0 0-7 4.184V1.5a.5.5 0 0 0-1 0v5a.5.5 0 0 0 .5.5h5a.5.5 0 0 0 0-1H2.344a.938.938 0 0 0 .056-.085 6 6 0 1 1 0 4.184 1 1 0 0 0-1.873.7A7.991 7.991 0 1 0 8 0z"/>
  </g>
  <g id="open">
    <path fill="rgb(213, 32, 20)" fill-opacity="1" d="M6.854 10.854l2-2A.5.5 0 0 0 9 8.5v-4a.5.5 0 0 0-1 0v3.793l-1.854 1.853a.5.5 0 1 0 .707.707zM8 0a8.011 8.011 0 0 0-7 4.184V1.5a.5.5 0 0 0-1 0v5a.5.5 0 0 0 .5.5h5a.5.5 0 0 0 0-1H2.344a.938.938 0 0 0 .056-.085 6 6 0 1 1 0 4.184 1 1 0 0 0-1.873.7A7.991 7.991 0 1 0 8 0z"/>
  </g>
</svg>
